Coordinates
version=1
nRows=11
nColumns=36
inDegrees=yes

Units are S.I. units (second, meters, Newtons, ...)
If the header above contains a line with 'inDegrees', this indicates whether rotational values are in degrees (yes) or radians (no).

endheader
time	pelvis_tilt	pelvis_list	pelvis_rotation	pelvis_tx	pelvis_ty	pelvis_tz	hip_flexion_r	hip_adduction_r	hip_rotation_r	knee_angle_r	knee_angle_r_beta	ankle_angle_r	subtalar_angle_r	mtp_angle_r	hip_flexion_l	hip_adduction_l	hip_rotation_l	knee_angle_l	knee_angle_l_beta	ankle_angle_l	subtalar_angle_l	mtp_angle_l	lumbar_extension	lumbar_bending	lumbar_rotation	arm_flex_r	arm_add_r	arm_rot_r	elbow_flex_r	pro_sup_r	arm_flex_l	arm_add_l	arm_rot_l	elbow_flex_l	pro_sup_l
      0.00000000	      9.00243102	     -0.21824568	      6.78989826	     -0.99265496	      1.25357851	     -0.02867789	     -7.68659632	      5.50758046	      2.32848516	      8.41645757	      0.14689490	      4.14722848	    -23.39215878	     -6.45980641	     -5.42721914	     -4.47364348	      5.68378556	     11.09470265	      0.19363909	     12.37326241	     -7.20929715	     -6.45980641	    -27.82317184	      2.27874367	      0.53344358	     13.61191928	     -8.79134536	     16.98255116	     21.72899382	     75.54069891	      8.48215188	     -4.85647711	     18.30007345	     19.32323551	     64.83318516
      0.00416670	      8.66980474	      0.38457366	      6.55304843	     -0.99319444	      1.24959761	     -0.02779397	     -6.32536929	      5.09252112	      2.25718470	     10.36351317	      0.18087743	      6.66846897	    -24.28098367	     -7.10915677	     -4.93700130	     -3.36933479	      8.19459532	     11.04908238	      0.19284287	     11.94756928	     -7.10419266	     -7.10915677	    -27.83472449	      1.71428231	      0.63066833	     13.43227563	     -7.51227389	      9.73525212	     21.98452518	     82.94314472	      8.47757844	     -4.08428847	     13.52797785	     19.29791421	     68.04965662
      0.00833330	      8.10885791	      0.92763588	      6.15287533	     -0.99283232	      1.25219340	     -0.02677297	     -6.22089157	      4.53309151	      1.56637084	      9.60844543	      0.16769901	      6.27219962	    -24.14708761	     -7.18789455	     -4.94425762	     -2.79887664	      9.05497500	     10.08531673	      0.17602198	     11.71395518	     -7.33542926	     -7.18789455	    -27.09541722	      0.75184665	      1.06902118	     12.96316949	     -6.41364407	      6.19134002	     22.61797169	     82.68676899	      8.51014972	     -3.76806216	     11.77658212	     19.21968717	     67.40661889
      0.01250000	      9.58617983	      1.23008257	      5.57605156	     -0.99358001	      1.24847186	     -0.02542995	     -7.96201683	      4.27277234	      1.52952371	      9.42334360	      0.16446837	      6.75123989	    -23.53462184	     -7.21076318	     -7.26773251	     -2.62486453	      9.56505027	      8.92656992	      0.15579804	     11.57425852	     -8.15483869	     -7.21076318	    -28.90107691	      0.33033466	      1.68908720	     13.07751684	     -6.00063472	      3.51769007	     23.41472735	     84.34095341	      8.89701842	     -3.60041497	      9.66933771	     19.50858045	     67.29420438
      0.01666670	     10.16211935	      1.26578192	      4.97423282	     -0.99378925	      1.25310035	     -0.02492746	     -8.60962467	      4.19215601	      1.72932496	      9.35885522	      0.16334284	      6.69381447	    -23.27975058	     -7.28353629	     -8.49300912	     -2.61794234	     10.00269608	      8.13104418	      0.14191349	     11.33293456	     -8.62439460	     -7.28353629	    -29.69726487	      0.04117184	      2.14208632	     13.13387533	     -5.94863433	      3.00966940	     24.01953737	     84.01861031	      9.04361498	     -3.43303987	      8.43624425	     19.56824044	     66.84071721
      0.02083330	     10.77874669	      1.31029110	      4.73750309	     -0.99369599	      1.25427904	     -0.02446165	     -9.50702033	      4.18452666	      1.56480292	      8.78264856	      0.15328613	      6.68165086	    -22.82444032	     -7.35378870	     -9.72469168	     -2.64823309	     10.57602351	      7.26388447	      0.12677870	     11.05859478	     -9.12893788	     -7.35378870	    -30.41435743	     -0.15659679	      2.37838555	     13.47686109	     -6.05986170	      3.09673198	     24.64550353	     84.35417414	      9.13904350	     -3.39898455	      7.66147235	     19.64169682	     66.57951852
      0.02500000	     11.00098029	      1.16591056	      4.56016128	     -0.99399464	      1.25415309	     -0.02437103	     -9.76279663	      4.34112025	      1.79584616	      8.69739479	      0.15179818	      6.36956344	    -23.05912117	     -7.42241074	    -10.11408078	     -2.80049359	     10.92408619	      7.02222660	      0.12256098	     11.22012375	     -9.13183208	     -7.42241074	    -30.77483277	     -0.11575820	      2.60203845	     13.92458447	     -6.30117186	      4.54190422	     25.48000310	     79.78819706	      9.16823067	     -3.30017628	      7.46524227	     19.79671391	     64.98611371
      0.02916670	     11.04574069	      1.18467434	      4.61202869	     -0.99419313	      1.25802446	     -0.02442843	     -9.93603718	      4.36373763	      1.70638235	      8.31522839	      0.14512811	      6.04419484	    -23.30779434	     -7.46318437	    -10.17717078	     -2.78898563	     11.34338064	      6.97733501	      0.12177747	     11.04910156	     -9.46221763	     -7.46318437	    -30.96999707	     -0.19052744	      2.74444159	     14.30286230	     -6.31627665	      3.63925677	     26.01210974	     87.17626163	      9.37774818	     -3.17729706	      6.75307792	     19.68956955	     67.53240204
      0.03333330	     11.02143362	      1.13823473	      4.58614288	     -0.99430385	      1.25388521	     -0.02432371	    -10.00926296	      4.41979330	      1.87723819	      8.08788146	      0.14116016	      5.85861921	    -23.44660558	     -7.47661194	    -10.03313043	     -2.82072280	     11.55642244	      7.25786424	      0.12667363	     11.18235931	     -9.77389805	     -7.47661194	    -31.04793759	     -0.21557210	      2.75049952	     14.64626290	     -6.39206225	      4.78887044	     26.61225012	     85.82643818	      9.38334284	     -3.16740728	      6.66389646	     19.83393644	     67.29322134
      0.03750000	     11.08809974	      1.14773336	      4.46442628	     -0.99427939	      1.25434808	     -0.02394486	    -10.16908665	      4.40274453	      1.83929480	      7.73148866	      0.13493993	      5.55820007	    -23.77934043	     -7.47786110	    -10.27444963	     -2.81922676	     11.85869522	      6.97303538	      0.12170243	     10.97661680	    -10.21174882	     -7.47786110	    -31.17978268	     -0.31412563	      2.82018498	     14.89269886	     -6.42827062	      5.43266156	     27.01784416	     85.42261975	      9.40938435	     -3.04056196	      6.95420169	     19.88884133	     67.04055993
      0.04166670	     11.09714558	      1.26501924	      4.51303478	     -0.99415043	      1.25757749	     -0.02435062	    -10.43853337	      4.26809199	      1.85816521	      7.20915585	      0.12582351	      5.31116841	    -23.76101779	     -7.48335052	    -10.45021365	     -2.71526678	     12.25862634	      6.58203415	      0.11487817	     10.68097484	    -10.25097691	     -7.48335052	    -31.04137748	     -0.46232865	      2.84023987	     14.98339947	     -6.57163138	      6.78378265	     27.39837380	     83.30881273	      9.35231227	     -2.97449986	      7.48673663	     20.00154009	     66.39988035
